<?xml version="1.0" encoding="iso-8859-1"?>
<!-- Generator: Adobe Illustrator 19.0.0, SVG Export Plug-In . SVG Version: 6.00 Build 0)  -->
<svg version="1.1" id="Capa_1" xmlns="http://www.w3.org/2000/svg" xmlns:xlink="http://www.w3.org/1999/xlink" x="0px" y="0px"
	 viewBox="0 0 512 512" style="enable-background:new 0 0 512 512;" xml:space="preserve">
<path style="fill:#DEF2FC;" d="M346.728,483.809v0.948c0,6.14-4.976,11.116-11.116,11.116H180.086
	c-6.14,0-11.126-4.976-11.126-11.116v-0.948c0-4.337,2.555-8.211,6.47-10.096c15.319-7.397,24.199-21.624,29.329-35.191
	c6.47-17.101,6.985-33.161,6.985-33.161h92.201c0,0,0.525,16.06,6.995,33.161c5.13,13.567,14,27.794,29.329,35.191
	C344.173,475.599,346.728,479.472,346.728,483.809z"/>
<path style="fill:#BCCED5;" d="M310.94,438.522H204.759c6.47-17.101,6.985-33.161,6.985-33.161h92.201
	C303.945,405.361,304.47,421.421,310.94,438.522z"/>
<path style="fill:#456B93;" d="M512,66.792v332.501c0,14.268-11.569,25.837-25.837,25.837H25.837C11.559,425.13,0,413.561,0,399.293
	V66.792c0-9.601,7.778-17.379,17.389-17.379H494.61C504.222,49.413,512,57.191,512,66.792z"/>
<g>
	<path style="fill:#3B4F66;" d="M350.117,96.482c0,23.035-8.437,45.184-23.745,62.357c-17.771,19.944-43.288,31.39-70.001,31.39
		c-18.471,0-36.077-5.305-51.159-15.175c2.977,5.007,4.698,10.858,4.698,17.101c0,18.502-15.051,33.553-33.553,33.553
		s-33.553-15.051-33.553-33.553s15.051-33.553,33.553-33.553c4.152,0,8.128,0.762,11.796,2.143
		c-16.462-17.451-25.528-40.177-25.528-64.263c0-15.69,3.956-31.214,11.445-44.916c0.402-0.721,0.804-1.442,1.226-2.153h162.13
		C345.492,63.248,350.117,79.339,350.117,96.482z"/>
	<path style="fill:#3B4F66;" d="M163.809,363.02c0,21.428-4.667,42.753-13.567,62.11H25.837C11.559,425.13,0,413.561,0,399.293
		V215.045c4.935-0.505,10.013-0.762,15.072-0.762C97.084,214.283,163.809,281.008,163.809,363.02z"/>
</g>
<path style="fill:#F65E5E;" d="M150.417,363.02c0,22.386-5.439,43.505-15.072,62.11H25.837C11.559,425.13,0,413.561,0,399.293
	V228.51c4.945-0.556,9.972-0.834,15.072-0.834c70.227,0,127.969,53.487,134.686,121.953
	C150.19,354.027,150.417,358.498,150.417,363.02z"/>
<path style="fill:#E94141;" d="M150.417,363.02c0,22.386-5.439,43.505-15.072,62.11H25.837C11.559,425.13,0,413.561,0,399.293
	v-49.665h149.757C150.19,354.027,150.417,358.498,150.417,363.02z"/>
<path style="fill:#DEF2FC;" d="M512,363.018v36.277c0,14.263-11.572,25.835-25.835,25.835H25.835C11.561,425.13,0,413.559,0,399.296
	v-36.277H512z"/>
<circle style="fill:#BCCED5;" cx="256" cy="393.34" r="12.02"/>
<circle style="fill:#FCB043;" cx="176.36" cy="192.15" r="20.16"/>
<path style="fill:#04A1EE;" d="M336.725,96.482c0,20.521-7.685,39.24-20.356,53.446c-3.039,3.42-6.377,6.573-9.952,9.416
	c-13.722,10.951-31.122,17.492-50.046,17.492c-17.122,0-32.997-5.347-46.029-14.495c-3.987-2.782-7.716-5.934-11.126-9.385
	c-14.35-14.505-23.2-34.46-23.2-56.475c0-13.949,3.554-27.063,9.807-38.498c2.184-3.997,4.698-7.788,7.52-11.332
	c3.121-3.956,6.624-7.623,10.436-10.92c3.389-2.946,7.036-5.604,10.889-7.943c12.156-7.397,26.424-11.662,41.702-11.662
	C300.751,16.128,336.725,52.101,336.725,96.482z"/>
<path style="fill:#0084CE;" d="M336.725,96.482c0,20.521-7.685,39.24-20.356,53.446c-3.039,3.42-6.377,6.573-9.952,9.416
	l-6.851-4.687c-7.778-5.326-11.373-15.03-8.922-24.137l8.726-32.513l-4.955-2.658l-7.005,1.01c-1.061,0.155-2.133,0.237-3.193,0.237
	c-3.946,0-7.829-1.051-11.229-3.039l-3.801-2.225l-5.79-1.35c-9.642-2.266-16.524-10.425-17.132-20.305l-0.855-13.907l-11.548,0.67
	c-0.433,0.021-0.855,0.031-1.277,0.031c-6.222,0-12.197-2.627-16.401-7.211L203.78,35.732c3.389-2.946,7.036-5.604,10.889-7.943
	c12.156-7.397,26.424-11.662,41.702-11.662C300.751,16.128,336.725,52.101,336.725,96.482z"/>
<path style="fill:#54CC4E;" d="M336.725,96.511c-0.007,20.506-7.695,39.218-20.352,53.415l-9.242-6.324
	c-3.105-2.125-4.53-5.978-3.555-9.612l9.657-35.976c1.067-3.974-0.741-8.159-4.366-10.106l-9.431-5.066
	c-1.672-0.898-3.587-1.236-5.465-0.963l-8.488,1.23c-1.986,0.288-4.01-0.107-5.743-1.119l-4.383-2.561
	c-0.763-0.446-1.588-0.775-2.448-0.977l-6.456-1.514c-3.809-0.893-6.582-4.179-6.822-8.084l-1.134-18.405
	c-0.3-4.87-4.481-8.582-9.352-8.303l-16.053,0.918c-2.656,0.152-5.24-0.897-7.038-2.858L214.67,27.793
	c12.863-7.833,28.096-12.153,44.386-11.622C302.123,17.576,336.74,53.421,336.725,96.511z"/>
<path style="fill:#0084CE;" d="M221.643,156.634l-11.301,5.707c-3.987-2.782-7.716-5.934-11.126-9.385
	c-14.35-14.505-23.2-34.46-23.2-56.475c0-13.949,3.554-27.063,9.807-38.498c2.184-3.997,4.698-7.788,7.52-11.332l22.118,21.078
	c7.221,6.882,8.973,17.822,4.265,26.62l-3.554,6.634l8.097,11.25c0.804,1.123,1.504,2.318,2.081,3.554l5.408,11.528
	C236.9,138.286,232.46,151.164,221.643,156.634z"/>
<path style="fill:#DEF2FC;" d="M215.607,144.678l-16.392,8.283c-14.347-14.513-23.199-34.466-23.199-56.479
	c0-13.948,3.556-27.065,9.805-38.499l20.399,19.442c2.885,2.75,3.58,7.087,1.698,10.6l-4.886,9.123
	c-1.597,2.982-1.357,6.613,0.618,9.359l9.743,13.547c0.319,0.444,0.597,0.916,0.829,1.411l5.413,11.538
	C221.67,137.344,219.886,142.516,215.607,144.678z"/>
<g>
	<path style="fill:#E94141;" d="M50.259,277.279h-1.541c-4.268,0-7.726-3.459-7.726-7.726s3.459-7.726,7.726-7.726h1.541
		c4.268,0,7.726,3.459,7.726,7.726C57.985,273.819,54.526,277.279,50.259,277.279z"/>
	<path style="fill:#E94141;" d="M90.206,303.074h-1.541c-4.268,0-7.726-3.459-7.726-7.726s3.459-7.726,7.726-7.726h1.541
		c4.268,0,7.726,3.459,7.726,7.726C97.933,299.615,94.474,303.074,90.206,303.074z"/>
	<path style="fill:#E94141;" d="M68.507,322.333h-1.541c-4.268,0-7.726-3.459-7.726-7.726s3.459-7.726,7.726-7.726h1.541
		c4.268,0,7.726,3.459,7.726,7.726S72.775,322.333,68.507,322.333z"/>
</g>
<g>
	<path style="fill:#FFE6CA;" d="M124.564,147.991h-1.541c-4.268,0-7.726-3.459-7.726-7.726s3.459-7.726,7.726-7.726h1.541
		c4.268,0,7.726,3.459,7.726,7.726S128.832,147.991,124.564,147.991z"/>
	<path style="fill:#FFE6CA;" d="M96.837,169.235h-1.541c-4.268,0-7.726-3.459-7.726-7.726s3.459-7.726,7.726-7.726h1.541
		c4.268,0,7.726,3.459,7.726,7.726C104.563,165.776,101.105,169.235,96.837,169.235z"/>
	<path style="fill:#FFE6CA;" d="M268.006,260.281h-1.541c-4.268,0-7.726-3.459-7.726-7.726c0-4.267,3.459-7.726,7.726-7.726h1.541
		c4.268,0,7.726,3.459,7.726,7.726C275.732,256.822,272.274,260.281,268.006,260.281z"/>
	<path style="fill:#FFE6CA;" d="M397.65,123.438h-1.541c-4.268,0-7.726-3.459-7.726-7.726s3.459-7.726,7.726-7.726h1.541
		c4.268,0,7.726,3.459,7.726,7.726C405.376,119.979,401.918,123.438,397.65,123.438z"/>
	<path style="fill:#FFE6CA;" d="M425.465,144.726h-1.541c-4.268,0-7.726-3.459-7.726-7.726s3.459-7.726,7.726-7.726h1.541
		c4.268,0,7.726,3.459,7.726,7.726S429.732,144.726,425.465,144.726z"/>
	<path style="fill:#FFE6CA;" d="M186.952,334.129h-1.541c-4.268,0-7.726-3.459-7.726-7.726s3.459-7.726,7.726-7.726h1.541
		c4.268,0,7.726,3.459,7.726,7.726C194.678,330.671,191.219,334.129,186.952,334.129z"/>
	<path style="fill:#FFE6CA;" d="M44.298,92.189h-1.541c-4.268,0-7.726-3.459-7.726-7.726s3.459-7.726,7.726-7.726h1.541
		c4.268,0,7.726,3.459,7.726,7.726C52.024,88.73,48.565,92.189,44.298,92.189z"/>
</g>
<path style="fill:#F65E5E;" d="M384.764,217.488h-16.482c-4.268,0-7.726-3.459-7.726-7.726s3.459-7.726,7.726-7.726h16.482
	c4.268,0,7.726,3.459,7.726,7.726C392.49,214.029,389.031,217.488,384.764,217.488z"/>
<g>
	<path style="fill:#DEF2FC;" d="M445.756,249.424h-77.474c-4.268,0-7.726-3.459-7.726-7.726s3.459-7.726,7.726-7.726h77.474
		c4.268,0,7.726,3.459,7.726,7.726S450.023,249.424,445.756,249.424z"/>
	<path style="fill:#DEF2FC;" d="M445.756,270.029h-77.474c-4.268,0-7.726-3.459-7.726-7.726s3.459-7.726,7.726-7.726h77.474
		c4.268,0,7.726,3.459,7.726,7.726C453.482,266.568,450.023,270.029,445.756,270.029z"/>
</g>
<g>
	<path style="fill:#F65E5E;" d="M409.572,217.488h-1.541c-4.268,0-7.726-3.459-7.726-7.726s3.459-7.726,7.726-7.726h1.541
		c4.268,0,7.726,3.459,7.726,7.726C417.299,214.029,413.84,217.488,409.572,217.488z"/>
	<path style="fill:#F65E5E;" d="M368.282,294.371v21.112c0,4.018,4.319,6.556,7.829,4.6l18.942-10.556
		c3.603-2.008,3.603-7.192,0-9.2l-18.942-10.556C372.601,287.815,368.282,290.353,368.282,294.371z"/>
</g>
<g>
</g>
<g>
</g>
<g>
</g>
<g>
</g>
<g>
</g>
<g>
</g>
<g>
</g>
<g>
</g>
<g>
</g>
<g>
</g>
<g>
</g>
<g>
</g>
<g>
</g>
<g>
</g>
<g>
</g>
</svg>
